<?xml version="1.0" standalone="no"?><!DOCTYPE svg PUBLIC "-//W3C//DTD SVG 1.1//EN" "http://www.w3.org/Graphics/SVG/1.1/DTD/svg11.dtd"><svg t="1765763968719" class="icon" viewBox="0 0 1024 1024" version="1.1" xmlns="http://www.w3.org/2000/svg" p-id="5465" xmlns:xlink="http://www.w3.org/1999/xlink" width="200" height="200"><path d="M1019.548 345.31c-3.206-142.113-127.154-169.36-127.154-169.36s-96.701-0.534-222.253-1.603L761.5 86.194s14.425-18.165-10.151-38.467-26.179-11.22-34.727-5.877c-7.48 5.343-117.003 112.73-136.237 131.963-49.686 0-101.51-0.534-151.73-0.534h17.63S315.393 43.987 306.845 38.11s-9.617-14.425-34.727 5.876c-24.576 20.302-10.151 38.467-10.151 38.467l93.496 90.825c-101.51 0-189.129 0.534-229.733 2.137C-5.699 213.348 4.452 345.31 4.452 345.31s1.603 283.158 0 426.34c14.425 143.182 124.483 166.155 124.483 166.155s43.81 1.068 76.4 1.068c3.205 9.083 5.876 53.96 56.097 53.96 49.686 0 56.097-53.96 56.097-53.96s365.969-1.602 396.422-1.602c1.602 15.493 9.082 56.631 59.303 56.097 49.686-1.068 53.426-59.303 53.426-59.303s17.096-1.603 67.85 0c118.607-21.905 125.552-160.812 125.552-160.812s-2.137-285.83-0.534-427.943zM917.504 798.365c0 22.439-17.63 40.604-39.535 40.604H156.717c-21.905 0-39.536-18.165-39.536-40.604V320.2c0-22.439 17.63-40.603 39.536-40.603h721.252c21.904 0 39.535 18.164 39.535 40.603v478.164z" fill="#1296DB" p-id="5466"></path><path d="M409.088 418.816l-203.264 38.912 17.408 76.288 201.216-38.912z m109.568 202.24c-49.664 106.496-94.208 26.112-94.208 26.112l-33.28 21.504s65.536 89.6 128 21.504c73.728 68.096 130.048-22.016 130.048-22.016l-30.208-19.456c0-0.512-52.736 75.776-100.352-27.648z m100.352-125.952l201.728 38.912 16.896-76.288-202.752-38.912z" fill="#1296DB" p-id="5467"></path></svg>