<?xml version="1.0" encoding="utf-8"?>
<!DOCTYPE svg PUBLIC "-//W3C//DTD SVG 1.0//EN" "http://www.w3.org/TR/2001/REC-SVG-20010904/DTD/svg10.dtd">
<svg version="1.0" xmlns="http://www.w3.org/2000/svg" width="120px" height="112px" viewBox="0 0 120 112" preserveAspectRatio="xMidYMid meet">
 <g fill="#17251c">
  <path d="M60.7 109.3 c-1.7 -1.6 -0.3 -6.1 5.5 -17.8 7 -14 5.2 -12.6 21.8 -17.1 5.2 -1.4 11.5 -3.1 14 -3.8 l4.5 -1.3 -5.2 -1.3 c-5.1 -1.3 -5.3 -1.5 -5.3 -4.7 0 -2.6 0.4 -3.3 1.9 -3.3 1 0 2.3 -0.6 2.9 -1.3 0.8 -1 0.2 -1.2 -2.9 -0.9 -3.9 0.4 -3.9 0.4 -3.9 -3 0 -4 2.7 -5.8 8.5 -5.8 1.9 0 3.7 -0.4 4 -1 0.3 -0.5 1.4 -1 2.4 -1 1.8 0 4.1 -3.7 4.1 -6.5 0 -0.9 0.9 -1.5 2.1 -1.5 2 0 2.1 0.4 1.4 6.3 -0.7 6.2 -4.2 15.7 -7.1 18.8 -1.9 2.1 -0.4 3.4 5 4.3 2.1 0.4 3.6 0.9 3.5 1 -2.9 2.6 -47.9 35.1 -54 39 -1.4 0.9 -2.9 1.3 -3.2 0.9z"/>
  <path d="M45.3 74.3 c-2.6 -0.5 -3.2 -4.3 -0.7 -4.3 1.3 0 1.1 -0.5 -0.6 -2.7 l-2.2 -2.8 3.1 -0.3 c2.3 -0.2 3.1 -0.8 3.1 -2.3 0 -1.5 0.7 -1.9 3.4 -1.9 3.2 0 3.4 0.2 4 4.6 0.3 2.6 0.6 6 0.6 7.5 0 2.8 -0.2 2.9 -4.2 2.8 -2.4 -0.1 -5.3 -0.4 -6.5 -0.6z"/>
  <path d="M40 54.5 c0 -3.3 0.2 -3.5 3.5 -3.5 3.3 0 3.5 0.2 3.5 3.5 0 3.3 -0.2 3.5 -3.5 3.5 -3.3 0 -3.5 -0.2 -3.5 -3.5z"/>
  <path d="M34.6 44.4 c-1.4 -3.7 -0.7 -5.4 2.4 -5.4 2.8 0 3 0.3 3 3.5 0 3 -0.3 3.5 -2.4 3.5 -1.3 0 -2.7 -0.7 -3 -1.6z"/>
  <path d="M34.7 36.3 c0.5 -1.2 0.2 -1.5 -1 -1 -1.3 0.5 -1.7 0.1 -1.7 -1.8 0 -2.2 0.4 -2.5 3.5 -2.5 3.3 0 3.5 0.2 3.5 3.5 0 3.1 -0.3 3.5 -2.5 3.5 -1.9 0 -2.3 -0.4 -1.8 -1.7z"/>
 </g>
 <g fill="#1b2c44">
  <path d="M43.7 71.9 c-0.5 -1.7 -0.2 -2 1.4 -1.6 2.6 0.7 2.4 0.2 -1.2 -3.6 -4.3 -4.4 -7.6 -11.8 -9 -20.5 -0.9 -5.5 -0.9 -7.9 -0.1 -9.8 1.1 -2.3 1.1 -2.4 -0.9 -1.4 -2.8 1.5 -3.3 0.8 -2.5 -3.5 0.6 -3.2 1 -3.5 4.1 -3.5 l3.5 0 0 5.5 c0 8 4.4 16.5 10.3 20 4.3 2.4 4.4 2.7 5.6 9.5 1.8 11.4 2 11 -4.8 11 -5.1 0 -5.9 -0.3 -6.4 -2.1z"/>
  <path d="M104 67 c0 -2 1.5 -2.2 5.3 -0.5 2.8 1.2 1.9 2.5 -1.8 2.5 -2.8 0 -3.5 -0.4 -3.5 -2z"/>
  <path d="M77 58.5 c0 -3.3 0.2 -3.5 3.5 -3.5 3.3 0 3.5 0.2 3.5 3.5 0 3.3 -0.2 3.5 -3.5 3.5 -3.3 0 -3.5 -0.2 -3.5 -3.5z"/>
  <path d="M92 54.5 c0 -3 0.3 -3.5 2.4 -3.5 1.3 0 2.6 -0.4 2.8 -0.8 0.2 -0.5 1.6 -1.5 3.3 -2.3 4.2 -2 10.4 -13.1 10.4 -18.6 0.1 -3 0.5 -4.3 1.5 -4.3 1.3 0 2.7 4 4.1 11.7 0.4 1.7 0.1 5.1 -0.6 7.5 -0.7 2.3 -1.4 5.2 -1.6 6.2 -0.6 3.4 -2.2 4.3 -8 4.9 -3.2 0.3 -5.9 1.1 -6.1 1.7 -0.2 0.5 -2.1 1 -4.3 1 -3.8 0 -3.9 -0.1 -3.9 -3.5z m18.1 -3.2 c1.2 -1.6 1.2 -1.6 -0.1 -0.6 -0.8 0.6 -2.8 1.3 -4.5 1.6 l-3 0.4 3.1 0.2 c2 0 3.7 -0.6 4.5 -1.6z"/>
 </g>
 <g fill="#38412e">
  <path d="M60.7 109.4 c-1.8 -1.8 -0.3 -7.3 4.9 -17.6 3.1 -6.1 6.2 -11.8 7 -12.6 2.2 -2.1 10.4 -2.9 10.4 -1 0 0.8 -1.6 2 -3.7 2.6 -3.6 1.1 -4.2 1.9 -10.8 15.2 -3.9 7.8 -7.4 13.8 -7.8 13.4z"/>
  <path d="M47.8 76.9 c-1.7 -1.2 -2.8 -3 -2.8 -4.4 0 -2.2 0.2 -2.3 3.2 -1.4 4.8 1.3 5 1.2 4.2 -2.6 -0.5 -3 -0.4 -3.5 1.3 -3.5 1.7 0 2.1 0.9 2.7 5.3 1 8.6 1 8.7 -2.6 8.7 -1.8 0 -4.5 -1 -6 -2.1z"/>
  <path d="M84 77.1 c0 -1.5 1.4 -2.2 6.5 -3.5 3.5 -0.9 7.3 -1.6 8.5 -1.6 1.1 0 2 -0.4 2 -0.9 0 -1.6 11.6 -3.4 14.7 -2.3 3.3 1.1 3 1.3 -7.7 4.1 -4.1 1 -10.8 2.9 -14.7 4 -8.9 2.6 -9.3 2.6 -9.3 0.2z"/>
  <path d="M107.5 76 c-0.3 -0.5 -0.5 -1 -0.3 -1.1 3.3 -0.8 3.8 -0.7 2.7 0.7 -1.4 1.7 -1.6 1.7 -2.4 0.4z"/>
  <path d="M92 65.8 c-4.1 -1.2 -7.6 -2.5 -7.8 -3 -0.2 -0.4 -1.7 -0.8 -3.3 -0.8 -2.6 0 -2.9 -0.3 -2.9 -3.5 0 -3.2 0.3 -3.5 2.9 -3.5 1.6 0 3.1 -0.5 3.3 -1.1 0.2 -0.5 2.4 -1.3 4.8 -1.5 2.5 -0.3 6.1 -1.2 8.1 -2.1 2 -0.8 4.9 -1.3 6.5 -1.1 l2.9 0.4 -3.7 1.6 c-2.1 0.9 -3.8 2 -3.8 2.3 0 0.3 0.5 0.3 1.2 -0.1 0.7 -0.4 2.8 -0.7 4.7 -0.5 2.5 0.1 4.1 -0.5 6.1 -2.4 1.5 -1.5 3 -2.2 3.4 -1.7 0.7 1.2 -2.9 7.8 -4.2 7.5 -0.5 -0.1 -2.5 1.3 -4.3 3.2 -1.9 1.9 -4.3 3.5 -5.4 3.6 -1.1 0.1 -0.3 0.6 1.8 1.1 4.7 1.3 5 3.8 0.5 3.7 -1.8 0 -6.7 -1 -10.8 -2.1z"/>
  <path d="M51.1 60.4 c0 -0.6 -2.3 -2.5 -5 -4.2 -6 -3.9 -10.2 -12.2 -10.3 -20.5 0 -3.8 -0.2 -4.6 -0.8 -3.1 -0.5 1.2 -1.4 2.5 -2.1 3 -0.9 0.5 -1 -0.1 -0.6 -2.6 0.4 -1.8 0.7 -4.3 0.7 -5.6 0 -2.1 0.5 -2.4 3.6 -2.4 l3.5 0 -0.2 6.3 c-0.2 4.7 0.2 7 1.8 9.7 1.9 3.4 2.2 3.5 7.1 3.2 l5.2 -0.4 0 3.6 c0 2.3 -0.5 3.6 -1.3 3.6 -0.9 0 -1.2 1.1 -0.9 3.4 0.2 1.8 0.2 4.2 -0.1 5.2 -0.3 1.1 -0.5 1.4 -0.6 0.8z"/>
  <path d="M60 46.5 c0 -3.3 0.2 -3.5 3.5 -3.5 3.3 0 3.5 0.2 3.5 3.5 0 3.3 -0.2 3.5 -3.5 3.5 -3.3 0 -3.5 -0.2 -3.5 -3.5z"/>
 </g>
 <g fill="#1a6334">
  <path d="M60.6 109.2 c-0.3 -0.3 -0.6 -1.3 -0.6 -2.3 0 -1 -0.5 -4.1 -1.1 -6.9 -0.9 -4.2 -1.4 -5.1 -2.9 -4.7 -1.8 0.5 -1.7 0.6 -5.2 -15.6 -1.1 -5.2 -0.6 -6.6 1.6 -4.8 1.2 1 1.4 0.9 1.1 -0.6 -0.2 -1 -0.9 -4.7 -1.5 -8.3 -0.7 -4 -2 -7.4 -3.3 -8.9 -1.2 -1.3 -1.5 -2.1 -0.7 -1.6 1.2 0.6 1.3 0.5 0.3 -0.6 -2.4 -2.5 -1.5 -3.9 2.6 -3.9 3.6 0 4.3 0.5 10.9 8.3 3.9 4.5 9 10.3 11.4 12.9 l4.3 4.8 13.5 -3.9 c8.7 -2.4 12.8 -4 11.5 -4.4 -1.1 -0.3 -5.3 -1.4 -9.2 -2.3 -7.2 -1.8 -7.3 -1.9 -7.3 -5.1 0 -3.2 0.2 -3.3 3.8 -3.3 4.7 0 6 1 3.1 2.6 -1.9 1 -1.1 1.4 7 3.4 5 1.2 9.1 2.6 9.1 3.1 0 0.5 1.2 0.9 2.8 1 1.5 0 3.6 0.4 4.6 0.8 1.3 0.5 -3.8 2.3 -17 6 -10.4 2.9 -20 5.6 -21.4 5.9 -2 0.6 -4 3.7 -9.7 14.9 -3.9 7.8 -7.4 13.9 -7.7 13.5z"/>
  <path d="M34.1 29.3 c-0.1 -2.4 0.4 -4.3 0.9 -4.3 0.6 0 1 -0.8 1 -1.8 0 -1 1.3 -2.3 3.3 -3.2 1.7 -0.7 3.5 -1.5 4 -1.8 1.4 -0.7 0.7 7.7 -0.8 9.2 -0.8 0.8 -1.5 2.4 -1.5 3.5 0 1.5 -0.6 2.1 -2.4 2.1 -2 0 -2.3 -0.4 -1.9 -2.7 l0.4 -2.8 -1.5 3 -1.4 3 -0.1 -4.2z"/>
 </g>
 <g fill="#274067">
  <path d="M31 96.4 c-5.5 -1.7 -16.2 -7.6 -16.8 -9.2 -0.2 -0.8 0.9 -1.2 3.2 -1.2 2 0 3.6 0.5 3.6 1 0 0.6 0.7 1 1.5 1 0.8 0 1.5 0.4 1.5 0.9 0 0.5 1.8 1.2 4 1.6 2.2 0.4 4.7 1.3 5.4 2.1 1 1 3.8 1.4 9 1.4 5.8 0 7.6 0.3 7.6 1.4 0 0.8 -0.7 1.7 -1.6 2 -2.8 1.1 -12.7 0.5 -17.4 -1z"/>
  <path d="M53 93.1 c0 -2.4 0.4 -3.1 1.9 -3.1 1.1 0 2.1 0.9 2.4 2.2 0.7 2.6 0.8 2.4 -2 3.2 -2 0.7 -2.3 0.4 -2.3 -2.3z"/>
  <path d="M75.3 61.3 c-0.7 -0.2 -1.3 -2 -1.3 -3.9 0 -3.2 0.2 -3.4 3.5 -3.4 4.9 0 16.2 -5.3 20.8 -9.8 2.1 -2 5.2 -6.3 6.8 -9.4 2.6 -5.1 2.8 -6.4 2.2 -11.8 -0.3 -3.3 -0.2 -6 0.3 -6 0.5 0 2.1 2 3.7 4.4 4.1 6.5 3.7 13.1 -1.1 21.5 -4 6.9 -8.3 10 -16.5 12 l-4.2 1 4 -0.4 c2.2 -0.2 5.4 -0.7 7 -1.1 2.7 -0.6 2.9 -0.5 1.7 0.9 -0.7 0.9 -2.8 1.9 -4.5 2.2 -1.8 0.4 -6.1 1.5 -9.6 2.6 -6.2 1.9 -10.3 2.3 -12.8 1.2z"/>
  <path d="M49 57.8 c-0.1 -0.5 -0.3 -1.2 -0.4 -1.7 0 -0.5 -0.5 -1.3 -1 -1.8 -0.5 -0.5 -0.6 -0.3 -0.2 0.5 1 1.7 -0.2 1.5 -2 -0.3 -1 -0.9 -1.4 -2.9 -1.2 -5.2 0.3 -3.6 0.5 -3.8 4.1 -4.1 l3.7 -0.3 0 4.5 c0 2.5 -0.4 4.6 -0.9 4.6 -0.5 0 -1.2 1 -1.4 2.3 -0.2 1.2 -0.5 1.9 -0.7 1.5z"/>
  <path d="M36.6 40.4 c-0.9 -2.5 -0.7 -6.4 0.4 -6.4 0.6 0 1 1.8 1 4 0 4.3 -0.4 5 -1.4 2.4z"/>
 </g>
 <g fill="#5a592d">
  <path d="M45.8 76.2 c-4 -2.9 -5 -6.2 -2 -6.2 2.4 0 10.2 5.8 10.2 7.6 0 2.3 -4.2 1.6 -8.2 -1.4z"/>
  <path d="M81.8 63.3 c-2.4 -0.6 -2.4 -4.3 0 -4.3 1 0 2.2 -0.4 2.8 -1 0.5 -0.5 3.7 -1.4 6.9 -1.9 3.3 -0.6 7.3 -1.3 8.9 -1.7 4.2 -1 2.6 0.9 -3.4 4 -3.6 1.9 -5.8 2.4 -7.8 2 -4.1 -1 -2.1 0.5 2.9 2 l4.4 1.4 -6.5 0 c-3.6 0 -7.3 -0.2 -8.2 -0.5z"/>
  <path d="M48 56.7 c-1.4 -1.3 -3.3 -2.6 -4.2 -3 -1 -0.3 -1.8 -1.2 -1.8 -1.9 0 -0.8 -1.4 -4 -3.1 -7.3 -3 -5.9 -3.5 -10.2 -1.5 -14.7 0.5 -1.1 0.4 -1.8 -0.2 -1.8 -0.6 0 -1.3 1.3 -1.7 3 -1.1 5.2 -2.5 4.4 -2.5 -1.4 0 -5.6 0 -5.6 3 -5.6 3.4 0 3.2 -0.2 4.9 9 1.6 8.4 4.6 11.7 10.3 11.2 3.8 -0.4 3.8 -0.4 3.8 3.2 0 3.3 -0.3 3.6 -2.7 3.6 -2.5 0.1 -2.6 0.2 -1 1.4 2.2 1.7 2.2 2.7 0.1 1.9 -1.4 -0.5 -1.6 -0.1 -1.2 2 0.3 1.5 0.5 2.7 0.4 2.7 -0.1 0 -1.2 -1 -2.6 -2.3z m0.6 -4.1 c-0.5 -2.7 -0.3 -3.7 1.1 -4.5 1 -0.6 1.3 -1.1 0.6 -1.1 -1.4 0 -4.3 2.7 -4.3 4.1 0 1.4 1.9 4.9 2.6 4.9 0.4 0 0.3 -1.5 0 -3.4z"/>
  <path d="M80 56.4 c0 -1 6.9 -3.4 9.7 -3.3 2.7 0 2.6 0.1 -1.2 1.9 -3.9 1.8 -8.5 2.6 -8.5 1.4z"/>
  <path d="M111.4 51.1 c2.1 -2.3 2.6 -2.6 2.6 -1.1 0 0.5 -1 1.5 -2.2 2.1 -2.3 1.2 -2.3 1.2 -0.4 -1z"/>
  <path d="M60 45.5 c0 -3.3 0.2 -3.5 3.5 -3.5 3.3 0 3.5 0.2 3.5 3.5 0 3.3 -0.2 3.5 -3.5 3.5 -3.3 0 -3.5 -0.2 -3.5 -3.5z"/>
 </g>
 <g fill="#357f39">
  <path d="M51.6 84.9 c-1 -5.3 -0.7 -8.9 0.8 -8.9 1.4 0 1.9 1.5 3.1 8.8 0.4 2.7 0.2 3.2 -1.4 3.2 -1.3 0 -2 -0.9 -2.5 -3.1z"/>
  <path d="M65.9 70.3 c-5.2 -5.8 -10.6 -12 -12.1 -13.7 -2.3 -2.6 -2.9 -2.9 -3.8 -1.6 -0.9 1.3 -1 1.3 -1 0 0 -0.8 -0.3 -2.5 -0.6 -3.8 -0.6 -2.2 -0.4 -2.3 2.7 -2 3 0.3 3.4 0.7 3.7 3.5 0.3 2.7 0.8 3.3 2.6 3.3 2.1 0 5.6 2.7 5.6 4.4 0 0.4 1.4 1.9 3 3.3 2.1 1.7 3 3.4 3 5.4 0 2.4 0.4 2.9 2.5 2.9 1.4 0 3.2 1 4.2 2.3 l1.7 2.3 12 -3.3 c6.7 -1.9 12.2 -3.6 12.4 -3.8 0.4 -0.4 -7.2 -2.6 -17.5 -5.2 -6.5 -1.6 -7.3 -2.1 -7.3 -4.2 0 -1.4 0.5 -2.1 1.3 -1.9 0.6 0.3 6.6 2 13.2 3.8 17.1 4.6 25.7 7.2 25.3 7.5 -0.4 0.4 -40.1 11.5 -40.9 11.5 -0.4 0 -4.9 -4.8 -10 -10.7z"/>
  <path d="M66 56.5 c0 -3.3 0.2 -3.5 3.5 -3.5 3.3 0 3.5 0.2 3.5 3.5 0 3.3 -0.2 3.5 -3.5 3.5 -3.3 0 -3.5 -0.2 -3.5 -3.5z"/>
  <path d="M81 57 l-4.5 -0.7 4.2 -0.1 c2.3 -0.1 4.5 0.3 4.8 0.8 0.3 0.6 0.5 0.9 0.3 0.8 -0.2 0 -2.3 -0.4 -4.8 -0.8z"/>
 </g>
 <g fill="#bb2727">
  <path d="M17.5 58.3 c-2.2 -3.4 -3.1 -13.9 -1.6 -18.6 1.5 -4.3 6.1 -9.1 11.6 -11.9 2.2 -1.2 5 -3.1 6.2 -4.4 4.8 -5.2 8.6 -1.5 6.2 6 -1.7 5.7 -3.3 7.1 -2.6 2.4 0.7 -4.7 -0.9 -6 -1.7 -1.4 -0.5 2.6 -2 4.4 -6.1 7.6 -8.6 6.6 -10.7 14.9 -5.3 20.8 l2.1 2.2 -3.5 0 c-2.8 0 -4 -0.6 -5.3 -2.7z"/>
 </g>
 <g fill="#446760">
  <path d="M53.7 94.6 c-1.2 -3.2 -0.8 -8.6 0.7 -8.6 1.3 0 4 7.9 3 8.9 -0.2 0.2 -0.4 -0.2 -0.4 -0.9 0 -0.9 -0.4 -0.8 -1.3 0.4 -1.3 1.8 -1.4 1.8 -2 0.2z"/>
  <path d="M1.8 61.3 c-0.6 -2.8 0.2 -5.3 1.8 -5.3 0.9 0 1.4 1.1 1.4 3.5 0 3.7 -2.4 5 -3.2 1.8z"/>
  <path d="M70.8 60.8 c-2.1 -0.6 -3.8 -1.5 -3.8 -2.1 0 -0.8 -2.3 -1.3 -6.2 -1.3 -5.5 -0.2 -6.5 -0.5 -8.6 -3 -1.3 -1.6 -2.2 -2.4 -1.9 -1.9 0.3 0.6 0.2 1.7 -0.4 2.5 -0.7 1.3 -0.9 1.3 -0.9 0 0 -0.8 -0.3 -2.5 -0.6 -3.7 -0.5 -1.8 -0.1 -2.5 1.7 -3.2 1.3 -0.5 1.8 -1 1.2 -1 -0.7 -0.1 -1.3 -0.8 -1.3 -1.6 0 -1.2 1.4 -1.5 6.5 -1.5 5.8 0 6.5 -0.2 6.5 -2 0 -1.6 0.7 -2 3.6 -2 l3.6 0 -0.3 4.2 c-0.3 3.3 0 4.2 1.6 4.8 1.1 0.4 2.3 1.8 2.6 3.1 0.7 2.3 0.7 2.3 0.8 -0.3 0.1 -2.5 0.5 -2.8 3.6 -2.8 3.1 0 3.5 0.3 3.5 2.5 0 2.2 0.4 2.5 3.8 2.5 3.5 0.1 3.6 0.1 1.4 1.3 -1.2 0.7 -2.1 1.5 -1.8 1.8 0.2 0.2 -1.7 0.3 -4.2 0.1 -4.5 -0.3 -4.6 -0.3 -2.5 1.2 1.2 0.9 2.6 1.6 3 1.5 0.4 -0.1 1.5 -0.1 2.3 0.1 1.1 0.1 0.9 0.4 -0.5 1 -2.6 1.1 -8.1 1 -12.7 -0.2z"/>
  <path d="M37.4 30.1 c0.4 -0.5 0.3 -1.6 0 -2.5 -0.6 -1.5 -0.8 -1.5 -2 0.1 -1.2 1.6 -1.3 1.4 -1.4 -1.9 0 -3.3 0.3 -3.8 3.6 -4.8 1.9 -0.7 4 -2 4.7 -3.1 3.3 -5.2 3.7 1.3 0.5 8.3 -1.5 3.3 -2.8 4.8 -4 4.8 -1.1 0 -1.7 -0.4 -1.4 -0.9z"/>
 </g>
 <g fill="#6b7c37">
  <path d="M50 80 c0 -0.5 -0.9 -1 -2 -1 -1.1 0 -2 -0.3 -2 -0.7 0 -0.5 -1.4 -1.6 -3 -2.5 -3.8 -2.2 -4.4 -6.9 -0.7 -6.1 4.4 1.1 11.6 6.7 11.7 9.1 0 1.5 -0.6 2.2 -2 2.2 -1.1 0 -2 -0.4 -2 -1z"/>
  <path d="M79 61.1 c0 -1.3 0.6 -1.8 2.4 -1.6 5.5 0.6 6.4 3.5 1.1 3.5 -2.7 0 -3.5 -0.4 -3.5 -1.9z"/>
  <path d="M80.3 56.3 c0.9 -0.2 2.5 -0.2 3.5 0 0.9 0.3 0.1 0.5 -1.8 0.5 -1.9 0 -2.7 -0.2 -1.7 -0.5z"/>
  <path d="M48.7 52.3 c-1.4 -1.3 -0.6 -3.4 1.6 -4.3 1.6 -0.6 1.7 -0.9 0.5 -0.9 -0.9 -0.1 -2.4 0.7 -3.4 1.6 -1.3 1.4 -1.8 1.5 -2.2 0.4 -0.2 -0.7 -1.7 -2.4 -3.3 -3.9 -1.6 -1.4 -2.9 -3.4 -2.9 -4.4 0 -1 -0.4 -1.8 -0.9 -1.8 -1.9 0 -0.5 -10.6 2.3 -16.5 4 -8.6 6.7 -11.2 11.1 -10.7 2.9 0.3 3.5 0.8 3.5 2.8 0 2.1 0.5 2.4 3.5 2.4 3.3 0 3.5 0.2 3.5 3.3 0 4.4 -1.5 5.7 -6.7 5.7 -4.2 0 -4.3 0 -4.3 -3.5 0 -4.5 -2 -4.6 -4.3 -0.2 -1.5 2.9 -1.6 3.8 -0.2 10.2 0.8 3.8 1.5 7.3 1.5 7.7 0 0.5 1.1 0.8 2.5 0.8 2.6 0 2.6 -0.1 1.9 -6 l-0.7 -6 4.7 0 c2.5 0 4.6 0.5 4.6 1 0 0.6 0.7 1 1.5 1 1 0 1.5 1.1 1.5 3.5 0 2.8 -0.4 3.5 -2 3.5 -1.1 0 -2 0.7 -2 1.5 0 0.8 -0.9 1.5 -2.1 1.5 -1.1 0 -1.7 0.5 -1.4 1 1 1.6 3.3 1.2 5.5 -1 1.2 -1.2 3.3 -2 5.5 -2 3.3 0 3.5 0.2 3.5 3.4 0 2.1 -0.6 3.6 -1.5 4 -0.9 0.3 -1.9 1.6 -2.4 2.8 -0.9 2.2 -1 2.2 -2.6 -1.2 -1.3 -2.8 -1.5 -3 -1.1 -0.8 0.4 1.6 0.1 2.8 -0.7 3.1 -0.9 0.4 -0.9 0.6 0.1 0.6 0.6 0.1 1.2 0.6 1.2 1.1 0 1.6 -4.7 1.2 -5.3 -0.4 -0.5 -1.1 -1.6 -1.3 -4.4 -0.9 -2.1 0.3 -4.1 1 -4.4 1.5 -0.3 0.4 -0.8 0.5 -1.2 0.1z m12.8 -4.3 c-0.3 -0.5 -2.5 -0.9 -4.8 -0.8 l-4.2 0.1 4.5 0.7 c2.5 0.4 4.6 0.8 4.8 0.8 0.2 0.1 0 -0.2 -0.3 -0.8z"/>
  <path d="M34.6 26.3 c0.9 -3.7 1.2 -4.1 3.4 -5.3 1.6 -0.9 1.5 -0.4 -0.7 3.5 -2.8 5.2 -3.6 5.7 -2.7 1.8z"/>
  <path d="M84 26.1 c0 -4.8 0.9 -6.1 4.5 -6.1 3.6 0 4.5 1.3 4.5 6.1 0 2.8 -0.2 2.9 -4.5 2.9 -4.3 0 -4.5 -0.1 -4.5 -2.9z"/>
 </g>
 <g fill="#3b5892">
  <path d="M33.3 97.2 c-1.3 -0.2 -2.3 -0.7 -2.3 -1.2 0 -0.5 -0.7 -0.6 -1.7 -0.3 -1.2 0.5 -1.4 0.3 -0.8 -0.7 0.5 -0.8 0.4 -1.1 -0.3 -0.7 -1 0.7 -9.4 -3.1 -10 -4.5 -0.2 -0.5 -1 -0.8 -1.7 -0.8 -0.7 0 -3.9 -2.8 -7.1 -6.2 -5.8 -6.3 -5.8 -6.3 -3 -6.6 2.1 -0.3 3.8 0.7 7.7 4.3 9.2 8.6 24.1 13.4 33.9 10.8 3.1 -0.8 3.5 -1.3 3.8 -4.6 0.5 -5.3 2.8 -4.8 4 1 1.2 5.4 0.3 7.8 -3 8.9 -2.4 0.8 -15.7 1.2 -19.5 0.6z"/>
  <path d="M69 60 c-1.4 -0.4 -5.6 -1.6 -9.3 -2.6 -5.3 -1.3 -7.1 -2.3 -8.2 -4.3 -0.8 -1.4 -1.4 -1.9 -1.5 -1.2 0 1.1 -0.3 1.2 -1.1 0.4 -0.7 -0.7 -0.9 -1.9 -0.6 -2.7 0.5 -1.2 2.1 -1.6 6.4 -1.6 5.2 0 6 0.3 8.4 3.1 2 2.4 3.2 3 5.5 2.7 l2.9 -0.4 -2.8 -1.2 c-1.5 -0.6 -3.3 -2.3 -3.9 -3.8 -1.1 -2.3 -0.9 -2.8 1.2 -4.6 1.4 -1.1 1.8 -1.6 1 -1.2 -0.8 0.4 -2.5 1.6 -3.7 2.7 -1.9 1.6 -2.7 1.8 -6 0.9 l-3.8 -1 3.6 -0.1 c2.8 -0.1 3.8 -0.6 4.2 -2.1 0.4 -1.5 1.4 -2 4.1 -2 3.1 0 3.6 0.3 3.6 2.4 0 5.2 8.1 4.9 19.1 -0.6 7.7 -3.9 8.7 -4.8 11.9 -10.2 3.5 -6.1 3.8 -8.3 2.5 -17.6 l-0.7 -4.5 3.2 3 c6.8 6.3 7.9 14.9 3.1 24.3 -1.6 3.1 -4.7 7.4 -6.8 9.4 -4.6 4.5 -15.9 9.8 -20.8 9.8 -1.9 0 -3.5 0.5 -3.5 1 0 0.6 0.7 1 1.5 1 0.8 0 1.5 0.5 1.5 1 0 1.2 -7.4 1.2 -11 0z"/>
  <path d="M36 22.6 c0 -0.7 0.9 -1.6 1.9 -1.9 1.7 -0.4 1.8 -0.2 0.8 1.4 -1.4 2.2 -2.7 2.5 -2.7 0.5z"/>
 </g>
 <g fill="#cb502a">
  <path d="M26.4 68.6 c-6.4 -3 -13.3 -9.1 -15.1 -13.3 -0.7 -1.8 -1.3 -6.4 -1.3 -10.2 l0 -6.9 5.6 -5.1 c5.3 -4.8 14.8 -10.2 20.7 -11.6 l2.8 -0.7 -1.8 3.7 c-1.2 2.5 -3.2 4.4 -6.3 6 -13.6 7 -16.8 18.7 -7.7 27.6 4.8 4.6 12 9.9 13.6 9.9 0.6 0 1.1 0.7 1.1 1.5 0 2.3 -5.7 1.9 -11.6 -0.9z"/>
 </g>
 <g fill="#4db448">
  <path d="M24.5 87.2 c-6.7 -2.3 -13.1 -6.1 -18.2 -11 -4.6 -4.2 -4.7 -4.6 -4.3 -17.2 0.2 -6.9 3.3 -15.3 6.5 -18 1.7 -1.4 1.8 -1.2 1.1 5.7 -0.8 8.6 0.2 11.3 6.6 16.8 8.1 6.9 17.2 10.3 32 12.1 4.2 0.4 4.8 0.8 5.7 3.7 0.5 1.8 1.1 4.6 1.3 6.2 l0.3 3 -13 0.2 c-10.2 0.2 -14.1 -0.1 -18 -1.5z"/>
  <path d="M64.5 68.4 c-6 -6.9 -11.7 -13.5 -12.5 -14.7 -1.4 -2 -1.4 -2 1.5 -1.3 1.7 0.4 3.7 0.9 4.6 1.1 1 0.2 6.6 1.7 12.5 3.3 6 1.6 18.3 4.9 27.4 7.3 9.1 2.3 16.8 4.5 17.3 4.9 0.4 0.3 -8 3 -18.5 6 -10.6 2.9 -19.7 5.5 -20.3 5.6 -0.5 0.2 -5.9 -5.3 -12 -12.2z"/>
 </g>
 <g fill="#809b3f">
  <path d="M41.6 75.9 c-2.3 -1.8 -3.8 -6.9 -1.9 -6.9 0.9 0 8.7 5.3 9.1 6.3 0.2 0.4 1.2 0.7 2.3 0.7 1 0 1.9 0.5 1.9 1 0 1.9 -8.6 1.1 -11.4 -1.1z"/>
  <path d="M62.4 48.6 c-0.3 -0.8 -2.2 -1.7 -4.2 -2.1 -2 -0.4 -4.1 -1 -4.7 -1.3 -0.5 -0.3 -2.4 -0.5 -4.2 -0.3 -2.3 0.2 -3.4 -0.3 -4.3 -1.8 -0.6 -1.2 -0.8 -2.1 -0.4 -2.1 0.3 0 0.1 -0.7 -0.6 -1.5 -0.6 -0.8 -0.9 -1.8 -0.6 -2.4 0.3 -0.5 -0.1 -1.1 -0.9 -1.5 -0.8 -0.3 -1.5 -1.3 -1.5 -2.1 0 -0.9 0.4 -1.4 1 -1 0.5 0.3 0.7 -1.3 0.3 -4.4 -0.4 -4 -0.1 -5.9 2.1 -10.4 2.3 -5 7.5 -10.7 9.6 -10.7 0.5 0 1.5 0.7 2.3 1.5 1.1 1.1 2.8 1.3 6.7 0.8 l5.1 -0.6 -0.3 3.9 c-0.2 3.1 -0.7 4 -2.5 4.2 -1.7 0.3 -2.3 1.1 -2.5 4 -0.3 3.2 -0.7 3.7 -3 4 -3.5 0.4 -3.6 2.8 -0.3 3.6 1.4 0.4 2.5 1.1 2.5 1.6 0 0.6 0.7 1 1.5 1 0.9 0 1.5 0.9 1.5 2.3 0 2 0.4 2.2 4 1.9 4 -0.4 4 -0.4 4 3.2 0 2.7 -0.8 4.3 -3 6.4 -1.6 1.6 -3 3.4 -3 4.1 0 1.8 -1.8 1.3 -2.3 -0.6 -0.2 -1 0.6 -2.9 1.7 -4.2 2.1 -2.5 0.6 -2.1 -2.6 0.7 -1.3 1.1 -1.5 1.9 -0.7 3.3 0.5 1.1 0.7 1.9 0.4 1.9 -0.3 0 -0.8 -0.6 -1.1 -1.4z m-4.5 -15.3 c0.1 -0.7 -0.7 -1.3 -1.6 -1.2 -1.1 0 -1.3 0.3 -0.6 0.6 0.8 0.3 1.1 1.5 0.8 3.1 -0.5 2.3 -0.4 2.4 0.4 0.7 0.5 -1.1 1 -2.6 1 -3.2z m0.2 -12 c1.3 -1.5 1.2 -1.5 -1.1 -0.3 -3.4 1.7 -3.6 2 -1.8 2 0.9 0 2.2 -0.7 2.9 -1.7z"/>
  <path d="M83 25 l0 -4 5 0 5 0 0 3.4 c0 3.6 -1.5 4.6 -7.2 4.6 -2.6 0 -2.8 -0.3 -2.8 -4z"/>
  <path d="M73.3 7.3 c-0.7 -0.2 -1.3 -1.8 -1.3 -3.4 0 -2.8 0.1 -2.8 4.8 -2.5 4.4 0.4 4.7 0.6 5 3.5 0.3 3 0.2 3.1 -3.5 3 -2.1 0 -4.4 -0.3 -5 -0.6z"/>
 </g>
 <g fill="#54a16e">
  <path d="M32 89.4 c-6.1 -1.2 -13 -3.5 -13 -4.4 0 -0.6 -0.9 -1 -2 -1 -1.1 0 -2.8 -0.8 -3.8 -1.7 -1 -1 -2.7 -2.3 -3.8 -2.9 -1 -0.6 -2 -2.3 -2.2 -3.7 -0.2 -1.8 -1 -2.7 -2.5 -2.9 -1.7 -0.2 -2.3 -1.2 -2.8 -4.3 -1 -5.7 0 -6.3 2.3 -1.6 2.5 5 10.2 11.4 18.8 15.5 6.2 3 7 3.1 19.2 3.1 10 0 12.9 0.3 13.3 1.4 0.3 0.8 0.3 1.6 0.1 1.8 -0.7 0.7 -20.6 1.2 -23.6 0.7z"/>
  <path d="M67.1 43.3 c1.2 -1.5 1.2 -1.6 -0.3 -1 -1.4 0.5 -1.8 0.1 -1.8 -1.8 0 -1.4 0.5 -2.5 1 -2.5 0.6 0 1 -0.9 1 -2 0 -1.6 0.7 -2 3.5 -2 3.3 0 3.5 0.2 3.5 3.5 0 1.9 -0.4 3.5 -1 3.5 -0.5 0 -1 0.9 -1 2 0 1.6 -0.7 2 -3.1 2 -2.8 0 -3 -0.2 -1.8 -1.7z"/>
  <path d="M71 3.5 c0 -1.9 0.5 -2.5 2.3 -2.5 2.9 0 4.4 1.1 4.4 3.3 0 1.3 -0.9 1.7 -3.4 1.7 -2.9 0 -3.3 -0.3 -3.3 -2.5z"/>
 </g>
 <g fill="#5273b2">
  <path d="M34.6 94.8 c-8.2 -1.1 -17.6 -5.7 -24.2 -12 -5.9 -5.5 -7.7 -8.8 -8.7 -15.3 -0.5 -3.4 -0.4 -3.7 0.6 -2 0.7 1.1 3.8 4.6 6.9 7.7 9.6 9.7 22.3 14.2 38.4 13.6 7.7 -0.3 7.7 -0.3 8.5 2.5 0.6 2.1 0.3 2.9 -1.2 3.7 -3.1 1.7 -13.9 2.6 -20.3 1.8z"/>
  <path d="M69.5 50.1 c-1.1 -0.4 -2.5 -0.6 -3.2 -0.4 -2.1 0.8 -2 -3.1 0.1 -5.6 l2.1 -2.3 -2.2 0.6 c-1.2 0.4 -2.4 0.2 -2.8 -0.5 -0.6 -0.8 0.8 -0.9 5 -0.4 5 0.5 6.4 0.3 11.2 -2 7.1 -3.5 16.6 -12.4 18 -16.8 0.8 -2.6 0.7 -4 -0.5 -6.3 -1.9 -3.9 -5.2 -7.4 -6.9 -7.4 -0.7 0 -1.3 -1.1 -1.3 -2.5 0 -2.3 0.2 -2.4 2.8 -1.4 1.5 0.6 2.7 0.9 2.7 0.8 0 -1.2 9 5.9 10.6 8.4 3.2 5 2.3 13.7 -2.1 21.3 -3.2 5.4 -4.2 6.2 -12 10.1 -8.7 4.3 -17.4 6.1 -21.5 4.4z"/>
 </g>
 <g fill="#cc912c">
  <path d="M30.5 70.6 c-3.8 -1.3 -7.1 -2.9 -7.3 -3.5 -0.2 -0.6 -1 -1.1 -1.8 -1.1 -0.8 0 -1.4 -0.9 -1.4 -2 0 -1.4 -0.7 -2 -2.3 -2 -3.1 0 -4.7 -1.8 -4.7 -5.2 0 -1.8 -0.5 -2.8 -1.5 -2.8 -1 0 -1.5 -1.1 -1.5 -3.5 0 -4.8 2.4 -4.6 3.8 0.4 2.1 6.8 12.3 14.6 22.5 17.2 2.5 0.6 5.3 2 6.3 3 1.6 1.8 1.6 1.9 -1.7 1.9 -1.9 0 -6.5 -1.1 -10.4 -2.4z"/>
  <path d="M11 39.6 c0 -4.8 15.3 -15.7 25.5 -18.2 2.7 -0.7 2.9 -0.6 1.6 0.9 -0.7 1 -2 1.7 -2.8 1.7 -1.7 0 -10.8 4.5 -14.6 7.4 -1.6 1.1 -4 4 -5.4 6.4 -2.8 4.7 -4.3 5.4 -4.3 1.8z"/>
 </g>
 <g fill="#a1ba43">
  <path d="M30.8 76.1 c-9.9 -3.2 -20.4 -10.4 -23.2 -16 -3.5 -6.9 -2.5 -15.5 2.5 -21.2 l2.8 -3.4 0.1 3.8 c0 2 -0.4 3.7 -0.9 3.7 -0.4 0 -1.4 2 -2.1 4.5 -1 3.4 -1 5.1 -0.1 7.2 1.3 3.1 8.6 11.3 10.1 11.3 0.4 0 1 0.4 1.2 0.8 0.2 0.4 3 2 6.3 3.4 6.9 3.1 14.4 4.6 15.4 3.1 0.3 -0.6 2.4 0.1 5.1 1.8 l4.5 2.9 -8 -0.1 c-4.9 0 -10.2 -0.7 -13.7 -1.8z"/>
  <path d="M67 44.5 c0 -0.2 0.9 -2.1 2.1 -4.2 1.5 -2.7 1.7 -3.3 0.5 -2.4 -0.9 0.7 -1.6 1.9 -1.6 2.6 0 2.1 -2.5 2.4 -7.4 0.8 -4.1 -1.4 -6.2 -3.3 -3.6 -3.3 0.6 0 1 -0.7 1 -1.5 0 -0.8 0.5 -1.5 1 -1.5 0.6 0 1 0.7 1 1.5 0 0.8 0.5 1.5 1 1.5 0.6 0 1 -0.9 1 -2 0 -1.1 -0.5 -2 -1.1 -2 -0.6 0 -1.7 -0.7 -2.6 -1.5 -0.8 -0.9 -2.3 -1.3 -3.2 -1 -1.3 0.4 -1.7 -0.1 -1.6 -2.2 0 -1.8 -0.5 -2.8 -1.5 -2.8 -0.8 0 -1.5 -0.4 -1.5 -1 0 -0.5 -0.3 -1.5 -0.7 -2.1 -1 -1.5 -0.7 -7.4 0.3 -6.8 1.3 0.7 5 -1.6 4.4 -2.7 -0.4 -0.5 -0.1 -0.9 0.5 -0.9 1.7 0 4 -2.6 4 -4.4 0 -1.7 3.5 -2.1 7.8 -1 3.2 0.9 3.1 7 -0.3 10.3 -1.4 1.3 -2.5 2.9 -2.5 3.6 0 0.7 -0.6 1.5 -1.2 1.8 -0.7 0.2 -0.1 0.8 1.5 1.2 2.2 0.6 2.7 1.3 2.7 4 0 3.4 1.3 4.5 5.1 4.5 1.5 0 1.9 0.7 1.9 3.4 0 1.8 -0.7 3.9 -1.5 4.6 -0.8 0.7 -1.5 1.9 -1.5 2.6 0 0.8 -0.9 1.4 -2 1.4 -1.1 0 -2 -0.2 -2 -0.5z m-8.4 -23 c1.5 -1.1 1.6 -1.4 0.3 -1.5 -0.8 0 -2.4 0.7 -3.5 1.5 -1.5 1.1 -1.6 1.4 -0.3 1.5 0.8 0 2.4 -0.7 3.5 -1.5z"/>
  <path d="M51.6 36.2 c-0.3 -0.6 -0.1 -1.4 0.5 -1.7 1.5 -1 2.5 0.3 1.2 1.6 -0.7 0.7 -1.3 0.7 -1.7 0.1z"/>
  <path d="M82 25.5 c0 -3.4 0.1 -3.5 3.8 -3.5 3.3 0.1 3.5 0.2 2 1.4 -2.2 1.6 -2.3 2.6 -0.3 2.6 0.8 0 1.5 0.7 1.5 1.5 0 1 -1.1 1.5 -3.5 1.5 -3.3 0 -3.5 -0.2 -3.5 -3.5z"/>
  <path d="M70.7 16.3 c-0.4 -0.3 -0.7 -2.1 -0.7 -4 0 -3.2 0.1 -3.3 4 -3.3 l4 0 0 4 c0 3.9 -0.1 4 -3.3 4 -1.9 0 -3.7 -0.3 -4 -0.7z"/>
  <path d="M73 4.4 c0 -3.3 0.2 -3.6 2.3 -3 1.2 0.3 2.8 0.6 3.5 0.6 0.7 0 1.2 1.3 1.2 3 0 2.8 -0.3 3 -3.5 3 -3.4 0 -3.5 -0.2 -3.5 -3.6z"/>
 </g>
 <g fill="#7d9892">
  <path d="M69.2 40 c1.2 -2.2 2.5 -4 3 -4 0.4 0 0.8 1.8 0.8 4 0 3.8 -0.2 4 -2.9 4 l-3 0 2.1 -4z"/>
  <path d="M82 26.5 c0 -2.8 0.4 -3.5 2 -3.5 1.1 0 2 -0.7 2 -1.5 0 -1 1.1 -1.5 3.5 -1.5 3.3 0 3.5 0.2 3.5 3.5 0 2.8 -0.4 3.5 -2 3.5 -1.1 0 -2 0.7 -2 1.5 0 1 -1.1 1.5 -3.5 1.5 -3.3 0 -3.5 -0.2 -3.5 -3.5z m8 -1.4 c0 -1.8 -1.7 -2 -3.6 -0.6 -1.8 1.4 -1.8 1.4 0.9 1.5 1.5 0 2.7 -0.4 2.7 -0.9z"/>
  <path d="M35 23 c0 -1.2 2.8 -2.5 3.6 -1.7 0.3 0.3 -0.4 1 -1.5 1.7 -1.5 0.7 -2.1 0.7 -2.1 0z"/>
  <path d="M79 12.6 c-1.4 -5.1 -4.1 -6.6 -11.6 -6.6 -5.6 0 -5.9 -2.2 -0.5 -3.9 4.4 -1.3 15.1 -0.7 19.4 1 1.9 0.8 2.7 1.9 2.7 3.5 0 1.3 -0.4 2.4 -1 2.4 -0.5 0 -1 1.8 -1 4 0 3.9 -0.1 4 -3.4 4 -3.1 0 -3.4 -0.3 -4.6 -4.4z"/>
 </g>
 <g fill="#6589c1">
  <path d="M67 44.1 c0 -0.5 0.7 -1.4 1.5 -2.1 0.8 -0.7 1.5 -1.9 1.5 -2.6 0 -0.9 1.1 -1.4 2.8 -1.4 5.6 0 16.2 -9.8 18.3 -16.9 1.1 -3.6 1 -4.7 -0.4 -7.6 -1.5 -3.1 -2.1 -3.5 -5.6 -3.5 -3.1 0 -4.1 -0.4 -4.6 -2 -0.4 -1.3 -1.5 -2 -3.1 -2 -1.3 0 -2.4 -0.4 -2.4 -0.9 0 -0.5 1.5 -0.5 3.3 -0.1 1.7 0.4 3.1 1.2 3 1.8 -0.4 1.6 0.8 1.5 3 -0.2 2.4 -1.8 2.1 -2.7 -0.5 -2.1 -1.3 0.3 -3.2 0 -4.2 -0.8 -3.3 -2.4 0.5 -2.7 6.5 -0.5 3 1.1 6.1 2 6.9 2.1 3 0.4 9 9.5 9 13.8 0 5.4 -2.5 10.1 -8.1 15.3 -7.7 7.1 -14.8 10.6 -21.6 10.6 -2.9 0 -5.3 -0.4 -5.3 -0.9z"/>
 </g>
 <g fill="#c9c63e">
  <path d="M43 77.3 c-0.8 -0.3 -2.4 -1.3 -3.5 -2.3 -1.1 -0.9 -3.9 -2.2 -6.2 -2.9 -3.5 -1 -4.3 -1.6 -4.3 -3.5 l0 -2.4 6.1 1.9 c3.4 1.1 7.6 3.2 9.4 4.7 1.7 1.5 4 3.2 5.1 3.9 1.7 1 1.5 1.2 -1.6 1.2 -1.9 0 -4.2 -0.3 -5 -0.6z"/>
  <path d="M21 65.6 c0 -0.8 -1 -1.6 -2.2 -1.8 -1.5 -0.2 -2.4 -1.1 -2.6 -2.5 -0.2 -1.4 -1 -2.3 -2.1 -2.3 -1 0 -2.3 -1 -2.9 -2.2 -1 -2.3 -1.1 -2.3 -1.1 0.5 -0.1 3.1 -1.6 3.5 -3.1 0.8 -1.7 -3.2 -1.2 -11.1 1.1 -15.8 3.7 -7.7 16.7 -17.5 27.7 -20.8 4.5 -1.3 2.1 1.4 -2.7 3 -11.8 3.9 -19.2 11.2 -19.9 19.9 -0.6 7.2 2 12 9.2 17.1 3 2.2 5.5 4.3 5.6 4.8 0 0.4 -1.6 0.7 -3.5 0.7 -2.4 0 -3.5 -0.5 -3.5 -1.4z"/>
  <path d="M66.1 36.3 c0 -0.7 -0.7 -1.3 -1.5 -1.3 -1.6 0 -3.1 -3.4 -2.1 -5 2 -3.2 5.3 1.3 4.2 5.7 -0.3 1 -0.5 1.2 -0.6 0.6z"/>
  <path d="M64 20 c0 -0.5 -0.8 -1 -1.8 -1 -4.6 0 -6.9 -8.1 -3.2 -11.3 2.8 -2.3 9.7 -2.3 10.2 0.1 0.3 1.3 1.4 1.7 5.3 1.7 l5 0 0.3 3.8 c0.3 3.6 0.2 3.7 -3.1 3.7 -2.6 0 -3.6 0.5 -4 2 -0.4 1.6 -1.4 2 -4.6 2 -2.3 0 -4.1 -0.4 -4.1 -1z m-1.7 -5.6 c-0.9 -2.3 -2.3 -1.6 -2.1 1 0.2 1.9 0.5 2.2 1.5 1.5 0.6 -0.6 0.9 -1.7 0.6 -2.5z m3.5 -2.2 c0.2 -0.7 -0.2 -1 -1.2 -0.6 -0.9 0.3 -1.6 1.1 -1.6 1.6 0 1.3 2.3 0.5 2.8 -1z"/>
 </g>
 <g fill="#d7d725">
  <path d="M34.4 76.5 c-8.1 -1.7 -15.6 -5.7 -21.5 -11.2 -4.8 -4.5 -7.6 -10.4 -6.1 -12.7 0.4 -0.6 0.7 -1.3 0.8 -1.6 0 -0.3 0.6 -1.8 1.3 -3.5 0.7 -1.6 2 -4.5 2.7 -6.4 1.9 -4.2 2.7 -3.6 1.3 1 -2.7 8.6 4.1 18.1 17.4 24.5 3.9 1.9 7.7 3.4 8.4 3.4 1 0 8.6 5.2 11.2 7.6 1 0.9 -9.9 0.1 -15.5 -1.1z"/>
 </g>
 <g fill="#74a1d2">
  <path d="M70 40.4 c0 -2.6 0.9 -3.6 5.3 -5.9 4.5 -2.2 8.7 -6.9 8.7 -9.6 0 -1 0.5 -1.9 1 -1.9 1.9 0 1 -4.7 -1.4 -7.2 -1.4 -1.3 -2.8 -3.6 -3.1 -5.1 -0.4 -1.4 -1.6 -2.9 -2.6 -3.2 -2.9 -1 -2.3 -2.7 0.9 -2.3 1.5 0.2 2.6 0.8 2.5 1.5 -0.4 1.9 1.4 1.6 3.6 -0.6 1.8 -1.8 2 -1.8 4.9 -0.1 1.9 1.2 3.6 3.5 4.7 6.5 1.7 4.4 1.7 4.9 0.2 9.9 -3 9.3 -12.1 17.8 -20.5 19.2 -3.7 0.6 -4.2 0.4 -4.2 -1.2z m20 -16 c0 -1.7 -0.5 -1.7 -3.1 -0.4 -2.7 1.5 -2.4 2.8 0.6 2.2 1.4 -0.2 2.5 -1.1 2.5 -1.8z"/>
  <path d="M80.3 4.3 c-2.1 -0.8 -1.5 -2.2 0.7 -1.6 1.1 0.3 2 0.9 2 1.4 0 1 -0.8 1 -2.7 0.2z"/>
 </g>
 <g fill="#c0c572">
  <path d="M71.3 39.4 c-0.7 -0.3 -0.9 -1.2 -0.6 -2 0.4 -1 0 -1.2 -1.2 -0.8 -1.3 0.5 -1.6 0.2 -1.3 -1.7 0.2 -2 1 -2.5 4.1 -2.7 3.6 -0.3 3.7 -0.2 3.7 3.1 0 2.3 -0.6 3.7 -1.6 4.1 -0.9 0.3 -1.6 0.6 -1.7 0.5 -0.1 0 -0.7 -0.3 -1.4 -0.5z"/>
  <path d="M77 29.4 c0 -2.7 0.5 -3.7 1.9 -4.1 1.1 -0.3 2.1 -1.3 2.4 -2.4 0.4 -1.4 1.4 -1.9 4.1 -1.9 4 0 4.7 1.3 1.6 3 -1.1 0.6 -2 1.5 -2 2.1 0 0.6 0.4 0.8 0.9 0.4 0.5 -0.3 1.2 -0.1 1.6 0.4 0.3 0.5 -0.1 1.3 -0.8 1.8 -0.7 0.4 -1.6 1.6 -2 2.6 -0.4 1.2 -1.7 1.7 -4.2 1.7 -3.4 0 -3.5 -0.1 -3.5 -3.6z"/>
  <path d="M58 26.3 l-3.4 -1.5 3.4 -2.9 c1.9 -1.6 3.1 -2.9 2.6 -2.9 -1.8 0 1.7 -3 3.6 -3 2.8 0 2 4.1 -1.2 5.7 -1.4 0.7 -1.9 1.3 -1.2 1.3 0.6 0 1.2 1.1 1.2 2.5 0 2.9 -0.2 2.9 -5 0.8z"/>
  <path d="M58.6 17.1 c-0.3 -0.5 -1.4 -0.7 -2.5 -0.4 -1.5 0.4 -1.8 -0.1 -1.8 -2.3 0 -1.6 -0.6 -3 -1.2 -3.2 -1.6 -0.5 -1.4 -2.2 0.4 -2.2 0.8 0 3.9 -1.3 6.8 -2.9 5.8 -3.1 12.6 -4.2 14.9 -2.4 0.7 0.6 2.3 1.3 3.6 1.5 1.2 0.1 2.2 0.5 2.1 0.8 -0.2 0.3 0.9 1.8 2.4 3.4 3.9 4.2 3.6 6.6 -0.8 6.6 -3.4 0 -3.5 -0.2 -3.6 -3.7 -0.2 -3.3 -0.3 -3.4 -0.6 -0.9 -0.3 1.6 -1.1 3.5 -1.8 4.3 -1.5 1.4 -8.5 1.5 -8.5 0.1 0 -0.4 0.5 -0.8 1 -0.8 0.6 0 1 -0.5 1 -1.1 0 -0.6 -0.9 -0.8 -2 -0.4 -1.1 0.4 -2 0.3 -1.9 -0.2 0.4 -2.3 -0.3 -4.3 -1.4 -4.3 -2.3 0 -5 3.7 -4.4 6 0.5 2.1 -0.7 3.7 -1.7 2.1z m17.9 -4.1 c-0.3 -0.5 -1.3 -1 -2.1 -1 -0.8 0 -1.4 0.5 -1.4 1 0 0.6 0.9 1 2.1 1 1.1 0 1.7 -0.4 1.4 -1z"/>
 </g>
 <g fill="#b8c09a">
  <path d="M71.5 37 c1.7 -1.8 1.7 -2 0.2 -1.4 -1.2 0.4 -1.7 0.1 -1.7 -1.3 0 -2 1.9 -4 6.8 -6.9 2.4 -1.3 3.2 -2.5 3.2 -4.6 0 -2.5 0.3 -2.8 3.4 -2.8 4 0 5.9 3.4 2.4 4.3 -1.1 0.3 -1.7 1 -1.3 1.6 0.3 0.6 1 0.9 1.5 0.6 1.6 -1 2 1.3 0.5 2.8 -0.8 0.9 -1.5 2 -1.5 2.6 0 0.6 -1 1.6 -2.2 2.2 -1.3 0.6 -3.1 2 -4.1 3 -1.1 1.2 -3.2 1.9 -5.4 1.9 -3.6 0 -3.6 0 -1.8 -2z"/>
  <path d="M58.2 25.9 c-2.3 -0.9 -2.3 -0.9 1.5 -5.4 3.8 -4.6 6.6 -5.7 7.7 -2.9 0.9 2.2 0.8 2.4 -0.9 2.4 -0.8 0 -1.5 0.9 -1.5 2 0 1.1 -0.4 2 -0.9 2 -0.5 0 -1.6 0.6 -2.3 1.4 -0.9 0.9 -2.1 1 -3.6 0.5z"/>
  <path d="M71 17 c0 -0.5 -0.8 -1 -1.7 -1 -1.7 -0.1 -1.7 -0.1 0 -1.1 1.4 -0.8 1.6 -1.4 0.6 -2.5 -0.6 -0.8 -1.8 -1.4 -2.5 -1.4 -1.8 0 -1.8 -0.9 0.3 -3.2 1.6 -1.7 1.5 -1.7 -1.8 -0.2 -1.9 0.9 -4.8 2.7 -6.5 4 -3.1 2.3 -3.2 2.3 -5.3 0.5 -1.1 -1 -2.1 -2.3 -2.1 -2.9 0 -1.2 3.4 -3.4 4.7 -3 0.4 0.1 3.1 -0.6 5.8 -1.5 7.3 -2.5 11.4 -2.8 12.4 -0.9 0.5 0.9 2.2 1.7 3.8 1.8 1.5 0.1 2.7 0.7 2.5 1.3 -0.1 0.6 0.4 1.1 1 1.1 1.6 0 3.8 4.6 3.8 7.7 0 2.2 -0.3 2.3 -7.5 2.3 -4.3 0 -7.5 -0.4 -7.5 -1z m4.8 -4.6 c-0.9 -0.9 -2.1 -1.3 -2.7 -1 -2 1.3 -1.1 2.6 1.6 2.6 2.5 0 2.6 -0.1 1.1 -1.6z"/>
 </g>
 <g fill="#dfe159">
  <path d="M71.1 39.1 c-0.9 -0.6 -0.9 -1 0.1 -1.8 2.5 -1.9 4.8 -2.3 4.8 -0.8 0 1.9 -3.2 3.6 -4.9 2.6z"/>
  <path d="M64.9 35.2 c-2.7 -2.9 -3.1 -4.2 -1.9 -5.7 1 -1.2 1 -1.5 -0.1 -1.5 -0.8 0 -2.3 -0.7 -3.3 -1.5 -1.9 -1.5 -1.9 -1.5 0.3 -3.6 1.2 -1.2 2 -2.6 1.8 -3.3 -0.9 -2.4 4.1 -4.6 5.4 -2.4 0.7 1 1.1 1 2.1 -0.1 1 -1 1 -1.2 0.1 -0.7 -0.7 0.4 -1.3 0.3 -1.3 -0.2 0 -0.6 0.7 -1.2 1.5 -1.6 2.3 -0.8 1.8 -2.5 -1 -3.2 -2.8 -0.7 -3.1 -1.4 -1.3 -3.2 1.6 -1.6 0.5 -1.5 -3.7 0.2 -2.9 1.3 -3.5 1.3 -3.5 0.1 0 -1.6 5.1 -2.9 7.9 -2 1.1 0.3 2.6 2.2 3.3 4.1 0.6 1.8 1.6 3.4 2 3.4 0.4 0 0.8 2.5 0.8 5.5 0 4.1 -0.4 5.5 -1.4 5.5 -0.8 0 -1.7 0.4 -2 0.9 -1.1 1.8 0.6 4.1 3 4.1 3.8 0 3 3.3 -1.1 5.3 -4.4 2.1 -5.6 2.1 -7.6 -0.1z"/>
 </g>
 <g fill="#8bc0dd">
  <path d="M71.2 39.3 c-1.6 -0.6 0.3 -3.3 2.4 -3.3 0.7 0 1.6 -0.5 2 -1.2 0.5 -0.8 0.2 -0.9 -1 -0.5 -1.2 0.5 -1.6 0.3 -1.3 -0.5 0.2 -0.7 1.1 -1.2 2 -1.2 0.9 0.1 1.5 -0.2 1.2 -0.6 -0.2 -0.4 0.4 -1.6 1.3 -2.6 1 -1 2.1 -2.7 2.5 -3.6 0.3 -1 1.3 -1.8 2.2 -1.8 1.3 0 1.2 -0.4 -0.5 -2.2 -1.1 -1.2 -2 -3.2 -2 -4.3 0 -1.2 -0.3 -4.3 -0.6 -6.9 -0.4 -2.6 -0.3 -4.6 0.2 -4.6 0.6 0 1.1 1.2 1.2 2.6 0.1 1.5 0.6 3.2 1.2 3.9 0.5 0.6 0.8 1.5 0.5 1.9 -0.3 0.3 0 0.2 0.6 -0.3 0.8 -0.6 0.8 -1.5 0 -2.9 -1.4 -2.6 -1.4 -3.2 -0.1 -3.2 0.6 0 1 0.6 1 1.3 0 0.6 1.2 2.3 2.5 3.6 1.4 1.3 2.6 2.9 2.6 3.7 0.1 0.8 0.2 2 0.3 2.7 0.3 1.9 -1.3 4.7 -2.8 4.7 -0.8 0 -2 0.8 -2.7 1.7 -1.3 1.5 -1.2 1.6 0.8 1.1 3.2 -0.8 3.5 0.3 1.3 4 -3 4.9 -11.5 9.8 -14.8 8.5z"/>
 </g>
 <g fill="#f7ef7f">
  <path d="M73.8 36 c1.2 -0.5 2.2 -1.2 2.2 -1.6 0 -0.3 -0.7 -0.4 -1.5 0 -0.8 0.3 -1.5 0.1 -1.5 -0.4 0 -0.5 -0.7 -0.7 -1.6 -0.3 -3.3 1.3 -7.4 -8.3 -4.4 -10.2 1.7 -1.1 1.1 -2.5 -1.1 -2.5 -1.7 0 -2 0.4 -1.5 2.4 0.4 1.8 0.1 2.5 -1.4 2.9 -1.6 0.4 -2 0 -2 -1.9 0 -1.3 0.5 -2.4 1 -2.4 0.6 0 1 -1.1 1 -2.4 0 -2.6 2.5 -4.3 3.4 -2.1 0.3 0.8 1.3 1.1 2.5 0.8 2.3 -0.6 2.7 -1.9 0.9 -2.6 -1 -0.4 -1 -0.6 0 -0.6 0.6 -0.1 1.2 -0.8 1.2 -1.6 0 -1 1.5 -0.1 4.1 2.5 2.9 2.8 4.9 4 7 4 2.4 0 2.9 0.4 2.9 2.5 0 1.5 -0.9 3.1 -2.5 4.1 -1.7 1.1 -2.5 2.5 -2.5 4.5 0 1.8 -0.5 2.9 -1.4 2.9 -0.7 0 -1.9 0.7 -2.6 1.5 -0.7 0.8 -2 1.5 -2.9 1.4 -1.1 0 -0.9 -0.3 0.7 -0.9z"/>
 </g>
 <g fill="#d1d5c4">
  <path d="M73.8 36 c1.2 -0.5 2.2 -1.2 2.2 -1.6 0 -0.3 -0.7 -0.4 -1.5 0 -0.9 0.3 -1.5 0 -1.5 -1 0 -0.9 0.9 -1.8 1.9 -2.1 1.3 -0.3 2.1 -1.5 2.3 -3.6 0.2 -2.3 0.9 -3.3 2.8 -3.8 l2.5 -0.7 -2.7 -0.1 c-2.7 -0.1 -9 -3.3 -8.9 -4.5 0.5 -4.2 -0.1 -6.5 -1.9 -7.1 -2.6 -0.8 -2.5 -2.6 0 -4.8 2.2 -1.8 7.5 -2.3 8.5 -0.7 0.3 0.5 1.1 0.7 1.8 0.4 0.8 -0.3 1.3 0.6 1.5 2.3 0.1 1.4 0.8 3.4 1.5 4.2 0.8 0.9 1.3 3.7 1.3 6.2 -0.1 3.7 0.2 4.5 1.4 4.1 1.2 -0.4 1.2 -0.2 -0.2 1.4 -1.7 1.9 -1.8 2.2 -1.8 4.9 0 0.8 -0.4 1.5 -1 1.5 -0.5 0 -0.7 -0.8 -0.3 -1.7 0.5 -1.4 0.1 -1.3 -1.6 0.4 -1.1 1.2 -2.1 2.9 -2.1 3.7 0 1.6 -3 3.6 -5.2 3.5 -0.7 0 -0.3 -0.4 1 -0.9z m2.7 -23 c-2.1 -2.3 -4.5 -2.6 -4.5 -0.6 0 1.6 1.5 2.4 4.4 2.5 1.8 0.1 1.8 0 0.1 -1.9z"/>
  <path d="M58.8 25.9 c-2.5 -1.4 -2.2 -2.7 0.7 -4.1 1.4 -0.6 2.4 -1.7 2.1 -2.4 -0.5 -1.3 0.9 -2.7 3.1 -3 2 -0.3 2.5 2.9 0.7 4.3 -0.9 0.7 -1.4 1.9 -1.1 2.7 0.4 1 -0.1 2 -1.3 2.6 -2.2 1.2 -2.1 1.2 -4.2 -0.1z"/>
  <path d="M53.4 9.8 c-1.4 -2.3 4.7 -5.5 12.8 -6.7 5.1 -0.9 5.9 -0.3 3.1 2.1 -4.8 4.1 -14.5 6.9 -15.9 4.6z"/>
 </g>
 <g fill="#a9dce7">
  <path d="M73.8 35.9 c1.3 -0.5 2 -1.4 1.6 -2 -0.4 -0.8 -0.9 -0.7 -1.5 0.2 -0.7 1.1 -0.9 1 -0.9 -0.4 0 -1.1 0.9 -2.1 1.9 -2.4 1.1 -0.3 1.7 -1.1 1.5 -1.8 -0.3 -0.7 0.2 -1.5 1 -1.8 0.9 -0.4 1.6 -1.3 1.6 -2.1 0 -0.8 0.8 -1.7 1.8 -1.9 1.4 -0.4 1.3 -0.5 -0.4 -0.6 -1.1 0 -3.6 -0.9 -5.5 -1.8 -2.7 -1.4 -3.5 -2.5 -3.7 -5 -0.3 -2.6 0 -3.2 1.1 -2.7 0.8 0.3 1.4 1.3 1.2 2.2 -0.1 0.9 0 1.1 0.2 0.5 0.3 -0.7 1.5 -1.3 2.9 -1.3 1.3 0 2.4 -0.5 2.4 -1.1 0 -0.5 -0.4 -0.8 -0.9 -0.4 -0.5 0.3 -1.2 0.1 -1.6 -0.5 -0.3 -0.5 0.1 -1 0.9 -1 0.9 0 1.6 -0.4 1.6 -1 0 -1.3 4.4 3.1 4.5 4.5 0.1 0.5 0.7 2.3 1.5 3.8 1.6 3.4 0.5 6 -2.8 6.5 -1.8 0.3 -2.1 0.9 -1.7 3.8 0.4 3.1 0 3.7 -2.8 5.4 -1.8 1.1 -3.9 2 -4.7 1.9 -0.8 0 -0.5 -0.4 0.8 -1z"/>
  <path d="M81.4 29 c0 -1.1 0.6 -2 1.2 -2 0.7 0 1 0.8 0.7 2 -0.3 1.1 -0.8 2 -1.2 2 -0.4 0 -0.7 -0.9 -0.7 -2z"/>
 </g>
 <g fill="#e7e9a5">
  <path d="M73.1 33.7 c-0.1 -1 0.9 -2.1 2.1 -2.6 1.4 -0.5 1.7 -1 1 -1.5 -2.6 -1.6 -1.3 -4.4 2.6 -5.4 3.2 -0.9 3.4 -1 1 -1.1 -4.5 -0.2 -8.3 -3.2 -8.6 -6.8 -0.3 -2.6 0 -3.2 1.1 -2.7 0.8 0.3 1.3 1.3 1 2.2 -0.3 1.3 0.3 1.8 2.3 2 3.2 0.2 5.6 2 4.7 3.5 -0.3 0.5 -0.2 0.7 0.4 0.4 1.1 -0.7 4.5 2.8 3.6 3.7 -0.4 0.3 -1.5 0.6 -2.5 0.6 -1 0 -1.8 0.5 -1.8 1.1 0 0.5 0.6 0.7 1.3 0.3 0.7 -0.5 0.6 0 -0.3 1.2 -2.7 3.4 -3.7 4.3 -4.4 3.7 -0.3 -0.4 -0.6 -0.1 -0.6 0.6 0 0.7 -0.4 1 -0.9 0.7 -0.5 -0.4 -1.2 0 -1.4 0.6 -0.3 0.8 -0.6 0.6 -0.6 -0.5z"/>
  <path d="M60 25.7 c0 -0.8 1.1 -2.4 2.5 -3.7 3 -2.8 3.2 -4.4 0.5 -3.7 -1.1 0.3 -1.8 0.2 -1.5 -0.3 0.3 -0.4 1.4 -1 2.5 -1.3 1.1 -0.3 1.8 -0.1 1.5 0.3 -0.3 0.5 0.1 1.1 0.7 1.4 0.9 0.3 0.8 0.9 -0.6 2 -1 0.8 -1.6 2.1 -1.4 2.8 0.3 0.7 -0.2 1.8 -1.1 2.5 -2.1 1.6 -3.1 1.6 -3.1 0z"/>
  <path d="M79 13.9 c0 -0.5 -0.4 -0.8 -0.9 -0.5 -0.5 0.3 -1.4 -0.1 -2.1 -0.9 -0.7 -0.8 -0.9 -1.5 -0.4 -1.6 0.5 -0.1 -0.7 -0.5 -2.6 -0.9 -2.3 -0.6 -4 -0.5 -4.9 0.3 -1 0.9 -1.3 0.8 -1 -0.7 0.5 -2.6 9.2 -3.3 11.1 -1 0.7 0.8 2.1 2.4 3 3.4 1.4 1.6 1.5 1.9 0.1 2.4 -2 0.8 -2.3 0.8 -2.3 -0.5z"/>
 </g>
 <g fill="#e0ece6">
  <path d="M60 25.2 c0 -0.5 0.9 -1.7 2.1 -2.8 2.1 -1.9 2.1 -1.9 1.8 0.6 -0.4 2.3 -3.9 4.3 -3.9 2.2z"/>
  <path d="M78.3 20.7 c-2.4 -1.1 -4.3 -2.4 -4.3 -2.7 0 -1.5 5 0.3 7.1 2.6 1.2 1.3 2.1 2.3 1.8 2.3 -0.2 -0.1 -2.3 -1.1 -4.6 -2.2z"/>
  <path d="M77.4 12.5 c-1.4 -1.6 -3.3 -2.6 -5.8 -2.7 -3.2 -0.3 -3.4 -0.5 -1.9 -1.5 1.8 -1.4 6.2 -1.7 7.8 -0.5 1.7 1.2 4.4 5.9 3.8 6.6 -1 1 -1.7 0.6 -3.9 -1.9z"/>
 </g>
</svg>