<?xml version="1.0" standalone="no"?><!DOCTYPE svg PUBLIC "-//W3C//DTD SVG 1.1//EN" "http://www.w3.org/Graphics/SVG/1.1/DTD/svg11.dtd"><svg t="1765766302838" class="icon" viewBox="0 0 1024 1024" version="1.1" xmlns="http://www.w3.org/2000/svg" p-id="8380" xmlns:xlink="http://www.w3.org/1999/xlink" width="200" height="200"><path d="M512 63.85C264.49 63.85 63.85 264.49 63.85 512S264.49 960.15 512 960.15 960.15 759.51 960.15 512 759.51 63.85 512 63.85z m297.69 232.8s-1.97 7.21-6.72 8.2c-4.75 0.98-21.48 0.82-21.48 0.82s-50.66 8.36-49.67 55.41c0.01 21.87-0.01 347.6 0 360.12 0 0-1.53 9.84-8.74 10.05-7.21 0.22-23.17 0-23.17 0s0 1.31-8.31-9.62L358.7 372.3v348.03h5.34s40.05-49.15 40.35-49.62c6.43-9.41 12.35-10.05 21.58-7.89 3.63 1.09 7.3 3.58 10.42 8.33 0 0 3.12 4.34 5.12 11.35 1.22 3.54 1.66 7.18 1.61 10.66v0.1c0 0.12-0.01 0.23-0.01 0.35 0.03 4.25-0.6 8.91-2.35 13.83-0.01 0.01-0.03 0.06-0.07 0.13-0.01 0.01-0.02 0.04-0.03 0.05-0.03 0.07-0.08 0.16-0.13 0.27 0 0.01-0.01 0.02-0.01 0.03-0.38 0.83-1.13 2.56-1.66 3.8-0.35 0.8-0.6 1.4-0.6 1.4l-0.93 1.23-27.52 36.35c-15.04 22.03-32.5 47.3-46.78 63.94-0.71 0.83-1.42 1.64-2.12 2.43-7.67 8.66-14.3 14.53-18.95 15.63-0.38 0.03-1.2 0.04-2.14 0.05h-1.93c-0.94-0.01-1.77-0.02-2.14-0.05-4.65-1.1-11.28-6.97-18.95-15.63-0.7-0.79-1.4-1.6-2.12-2.43-14.28-16.64-74.3-100.28-74.3-100.28l-0.93-1.23s-0.26-0.6-0.6-1.4c-0.53-1.24-1.29-2.97-1.66-3.8 0-0.01-0.01-0.02-0.01-0.03-0.05-0.11-0.09-0.2-0.13-0.27-0.01-0.02-0.02-0.04-0.03-0.05a0.606 0.606 0 0 0-0.07-0.13 40.14 40.14 0 0 1-2.35-13.83c0-0.12-0.01-0.23-0.01-0.35v-0.1c-0.05-3.48 0.39-7.12 1.61-10.66 1.99-7.01 5.12-11.35 5.12-11.35 3.12-4.75 6.79-7.24 10.42-8.33 9.23-2.16 15.15-1.52 21.58 7.89 0.29 0.47 40.35 49.62 40.35 49.62H323.29V366v-2.78c-2.37-38-15.41-56.68-77.22-57.87v-18.2l7.05-6.17h152.79l290.5 311.45V363.39c-3.89-30.36-13.26-60.32-78.69-57.87 0.99-10.11-5.27-18.57 10.16-24.54h174.76c0-0.01 10.17 3.71 7.05 15.67z" fill="#46B84B" p-id="8381"></path></svg>